<?xml version="1.0" standalone="no"?>
<!DOCTYPE svg PUBLIC "-//W3C//DTD SVG 20010904//EN"
 "http://www.w3.org/TR/2001/REC-SVG-20010904/DTD/svg10.dtd">
<svg version="1.0" xmlns="http://www.w3.org/2000/svg"
 width="819.000000pt" height="753.000000pt" viewBox="0 0 819.000000 753.000000"
 preserveAspectRatio="xMidYMid meet">

<g transform="translate(0.000000,753.000000) scale(0.100000,-0.100000)"
fill="#000000" stroke="none">
<path d="M4164 7080 c-94 -14 -154 -43 -269 -129 -71 -53 -144 -92 -182 -98
-35 -6 -80 -24 -174 -74 -57 -30 -162 -35 -255 -13 -120 29 -331 25 -439 -7
-150 -46 -255 -119 -335 -235 -19 -28 -71 -99 -116 -157 -44 -59 -101 -142
-127 -185 -57 -94 -193 -314 -227 -368 -87 -135 -169 -393 -202 -634 -17 -123
-17 -378 0 -450 8 -36 10 -70 5 -100 -7 -38 -16 -50 -63 -86 -30 -22 -89 -59
-130 -81 -41 -22 -99 -55 -129 -72 -30 -18 -89 -50 -130 -72 -98 -50 -93 -47
-246 -160 -278 -205 -453 -305 -659 -379 -172 -62 -256 -114 -256 -159 0 -29
11 -32 68 -16 29 7 52 9 52 4 0 -5 -12 -12 -28 -15 -57 -14 -64 -22 -48 -53
21 -40 145 -156 164 -154 91 11 91 11 97 -7 3 -10 3 -30 -1 -44 -4 -16 -2 -26
5 -26 6 0 11 -8 11 -17 1 -22 46 -57 62 -47 6 4 8 3 5 -3 -4 -6 1 -17 10 -24
11 -9 14 -10 10 -2 -5 8 1 15 18 19 25 6 26 10 24 63 -3 52 -1 56 20 59 15 2
21 0 17 -7 -4 -6 -1 -9 6 -6 7 3 31 -1 53 -9 l40 -14 6 -69 c4 -53 10 -75 27
-93 18 -19 22 -21 22 -7 0 9 5 16 12 14 7 -1 19 23 28 58 11 42 20 59 31 56 7
-2 27 -4 43 -5 28 -1 29 -3 31 -57 1 -33 8 -65 18 -79 9 -14 17 -33 17 -42 0
-10 6 -27 12 -38 10 -16 10 -24 0 -40 -12 -19 -16 -50 -7 -50 2 0 19 9 37 20
18 11 41 20 50 20 16 0 38 51 38 89 0 10 9 12 37 6 21 -4 56 -10 78 -14 57
-10 89 -31 177 -109 46 -40 110 -85 160 -110 128 -65 194 -119 264 -218 21
-28 24 -29 94 -27 40 1 94 7 119 12 132 29 224 55 291 80 102 39 308 93 329
86 11 -3 71 -60 133 -126 l113 -120 6 -122 c6 -122 16 -192 45 -322 42 -181
75 -322 83 -345 5 -14 17 -54 26 -90 10 -36 23 -85 31 -110 44 -143 78 -249
89 -275 7 -16 21 -55 30 -85 19 -63 26 -78 107 -250 180 -378 412 -646 676
-779 100 -51 296 -97 447 -106 108 -6 423 14 565 35 36 6 115 17 175 25 61 8
151 21 200 29 50 8 135 21 190 30 55 8 107 17 115 20 8 3 58 10 110 16 52 5
151 18 220 29 69 10 161 22 205 25 44 4 114 11 155 16 89 11 330 29 560 40 95
4 193 15 231 25 128 32 207 123 217 245 5 72 -36 319 -71 420 -3 8 -20 62 -38
120 -31 102 -72 214 -109 295 -10 22 -46 103 -80 180 -34 77 -91 201 -127 275
-112 235 -172 400 -203 565 -30 160 -39 224 -45 326 -7 104 -10 92 71 336 24
72 44 137 44 143 0 7 6 26 14 43 22 51 64 193 92 317 23 98 27 138 28 275 0
136 -3 173 -23 249 -45 174 -104 308 -199 453 -87 134 -301 339 -507 487 -86
62 -104 88 -105 153 0 23 -7 72 -16 110 -9 37 -22 115 -28 173 l-11 105 -50
32 c-110 70 -107 67 -101 147 3 39 8 159 11 266 4 159 3 198 -9 213 -11 14
-34 19 -100 23 -57 4 -108 14 -148 30 -34 13 -67 24 -73 24 -6 0 -36 20 -66
45 -30 25 -72 60 -94 78 -22 18 -70 54 -106 79 -36 25 -106 76 -155 112 -49
36 -111 78 -139 92 -27 15 -63 38 -79 51 -26 22 -156 88 -306 156 -30 14 -104
42 -165 62 -98 32 -123 37 -230 40 -66 2 -143 0 -171 -5z m-371 -820 c-1 -24
-1 -24 10 3 16 41 29 33 23 -15 l-5 -43 10 38 c6 20 16 37 21 37 7 0 8 -15 5
-37 -5 -26 -3 -33 3 -23 5 8 10 28 10 43 0 25 3 27 23 22 12 -4 28 -14 35 -23
11 -14 12 -14 12 1 0 13 9 17 39 17 22 0 42 -5 44 -12 3 -8 6 -5 6 5 1 10 7
17 14 14 6 -2 11 -13 9 -25 -2 -12 2 -30 7 -41 8 -14 7 -20 -4 -25 -17 -6 -20
-27 -4 -23 13 2 31 -51 23 -65 -3 -5 -24 -6 -47 -2 -23 4 -56 7 -74 6 -18 -1
-35 3 -38 8 -4 6 -11 7 -18 3 -16 -10 -57 -10 -57 0 0 4 -6 5 -12 0 -7 -4 -35
-8 -63 -9 -45 -2 -78 -6 -139 -17 -11 -2 -22 -10 -24 -17 -3 -9 1 -11 11 -7
11 4 14 2 10 -9 -3 -8 1 -14 10 -14 8 0 17 9 20 20 3 11 10 20 16 20 6 0 8 -7
5 -15 -4 -11 0 -15 16 -15 15 0 20 -4 16 -15 -5 -14 18 -45 34 -45 4 0 7 7 6
16 0 9 5 19 12 21 6 3 12 -2 12 -10 0 -11 7 -13 23 -9 19 5 20 3 9 -11 -11
-13 -11 -20 0 -39 l13 -23 3 23 c3 21 22 32 22 12 0 -5 9 -10 20 -10 21 0 27
-15 10 -25 -5 -3 -7 -12 -4 -19 4 -10 -4 -14 -30 -13 -28 1 -36 5 -36 19 0 10
-7 18 -15 18 -8 0 -15 5 -15 11 0 6 -8 8 -19 4 -13 -4 -20 0 -24 15 -6 23 -47
43 -61 29 -15 -14 -23 -11 -29 13 -5 17 -9 19 -21 9 -8 -7 -30 -13 -50 -14
-19 -2 -38 -6 -42 -10 -4 -4 -16 -7 -27 -7 -37 0 -127 -61 -127 -86 0 -7 -8
-18 -19 -23 -10 -6 -26 -29 -35 -51 -11 -27 -22 -40 -35 -40 -11 0 -23 -5 -27
-11 -4 -7 -11 -2 -18 13 -14 26 -10 48 9 48 7 0 15 10 18 21 4 15 11 20 22 15
28 -10 38 4 18 27 -18 20 -17 20 5 15 17 -5 22 -2 22 14 0 11 5 18 13 15 6 -2
20 0 30 5 15 7 16 12 6 24 -9 11 -8 14 5 14 9 0 16 7 16 15 0 8 5 15 10 15 6
0 10 -4 10 -10 0 -5 5 -10 10 -10 6 0 10 7 10 15 0 8 7 15 15 15 8 0 15 7 15
16 0 12 -6 15 -22 10 -13 -4 -36 -9 -53 -12 -37 -6 -194 -53 -215 -64 -9 -4
-31 -11 -50 -15 -19 -4 -48 -14 -63 -22 -16 -8 -32 -12 -35 -9 -3 4 -7 42 -9
86 l-4 79 38 7 c21 5 43 7 50 6 6 -2 14 2 18 8 3 5 16 10 29 10 12 0 26 4 32
9 5 4 32 16 59 26 28 9 60 22 72 27 12 6 31 8 42 5 12 -3 22 1 25 10 4 8 12
13 20 10 18 -7 43 12 49 38 5 20 5 20 12 -1 6 -20 8 -21 63 -7 102 26 126 30
197 28 68 -1 70 -1 68 -25z m2314 -762 c-3 -7 -5 -2 -5 12 0 14 2 19 5 13 2
-7 2 -19 0 -25z m-1137 -9 c11 -6 6 -8 -16 -9 -16 0 -39 7 -50 15 -18 15 -17
16 16 9 19 -3 42 -10 50 -15z m679 -1324 c13 -7 15 -221 4 -228 -5 -3 -66 -6
-138 -8 l-130 -4 -6 110 c-4 66 -3 115 3 122 15 18 240 25 267 8z m202 -10
c88 -16 218 -56 255 -80 19 -12 22 -30 35 -172 7 -87 14 -257 14 -378 0 -239
-6 -279 -66 -429 -83 -206 -267 -412 -480 -537 -103 -59 -114 -60 -222 -4
-143 74 -215 125 -307 218 -96 98 -166 204 -211 321 -51 132 -57 189 -61 569
l-3 349 36 18 c112 58 477 146 501 122 20 -20 0 -27 -144 -56 -115 -23 -304
-80 -339 -102 -5 -3 -9 -150 -9 -344 0 -348 5 -408 45 -519 24 -69 83 -179
125 -235 49 -65 172 -184 232 -225 56 -37 220 -121 238 -121 17 0 106 45 165
85 200 133 358 336 424 546 40 127 44 179 37 423 -3 127 -8 242 -10 256 -2 14
-7 62 -11 107 l-7 83 -47 21 c-61 27 -254 67 -338 68 -14 1 -23 7 -23 16 0 20
58 20 171 0z m-1071 -33 c0 -5 -7 -9 -15 -9 -8 0 -15 4 -15 9 0 4 7 8 15 8 8
0 15 -4 15 -8z m1061 -72 c54 -11 125 -32 158 -46 l59 -26 7 -116 c4 -65 8
-214 9 -332 0 -207 0 -218 -27 -303 -45 -145 -118 -271 -219 -378 -118 -125
-276 -227 -290 -187 -2 7 -2 39 1 70 6 55 8 59 52 86 66 42 175 148 219 212
84 123 135 269 141 399 4 73 3 75 -24 84 -15 5 -27 16 -27 25 -1 10 -3 41 -6
70 l-4 52 31 0 32 0 -6 112 c-4 63 -11 115 -18 118 -6 4 -50 15 -97 25 -48 9
-93 18 -99 21 -22 6 -17 134 5 134 2 0 48 -9 103 -20z m-531 -68 l0 -68 -102
-26 c-57 -14 -115 -31 -130 -37 l-28 -11 0 -109 0 -109 33 2 32 1 0 -69 c0
-67 -1 -70 -30 -86 -28 -16 -30 -21 -33 -84 -7 -148 73 -328 204 -460 42 -42
123 -100 198 -141 10 -6 18 -14 17 -18 0 -4 -1 -34 -1 -67 0 -41 -4 -60 -12
-60 -24 1 -151 71 -219 121 -133 99 -241 246 -295 404 -27 78 -28 88 -37 419
-8 281 -7 340 4 351 36 35 279 111 367 114 l32 1 0 -68z m-523 -104 c-3 -8 -6
-5 -6 6 -1 11 2 17 5 13 3 -3 4 -12 1 -19z m837 -47 c16 -17 13 -51 -4 -51 -5
0 -15 -3 -24 -6 -10 -4 -19 3 -27 20 -11 23 -10 28 7 41 25 19 28 18 48 -4z
m109 -2 c15 -24 1 -49 -27 -49 -29 0 -44 33 -25 56 15 18 38 15 52 -7z m-380
-7 c25 -27 11 -62 -23 -62 -36 0 -51 44 -23 66 24 18 27 17 46 -4z m140 6 c11
-9 15 -21 11 -35 -9 -32 -59 -32 -67 -1 -11 40 22 61 56 36z m335 -1 c20 -23
3 -57 -28 -57 -20 0 -29 6 -33 22 -7 26 8 48 33 48 10 0 22 -6 28 -13z m83
-13 c23 -20 13 -51 -18 -57 -32 -6 -53 32 -32 57 18 20 28 20 50 0z m-663 -12
c20 -15 21 -20 9 -36 -21 -29 -57 -28 -68 2 -7 19 -6 27 8 38 23 17 24 17 51
-4z m-106 -19 c22 -25 7 -63 -26 -63 -32 0 -46 46 -19 66 23 18 27 17 45 -3z
m-4442 -72 c0 -5 -18 -13 -40 -19 -48 -12 -52 -7 -7 12 39 17 47 19 47 7z
m5139 -33 l24 -9 -7 -147 c-9 -201 -35 -299 -113 -418 -53 -81 -197 -213 -233
-214 -25 0 -129 81 -189 146 -104 114 -151 266 -151 494 l0 117 53 14 c88 24
87 26 87 -114 0 -151 13 -233 50 -317 30 -69 121 -180 147 -180 27 0 121 107
157 178 44 87 66 202 67 346 0 71 5 113 12 118 12 7 56 1 96 -14z m-5254 -13
c-16 -8 -41 -14 -55 -14 -20 1 -17 4 15 14 52 18 78 17 40 0z m-155 -44 c-30
-10 -59 -15 -65 -12 -12 7 60 29 95 30 15 0 3 -7 -30 -18z m896 -91 c45 0 43
-10 -7 -37 -42 -23 -62 -21 -87 10 -10 11 -5 21 21 49 l32 35 3 -29 c3 -25 7
-28 38 -28z m-102 -42 c61 -48 66 -54 66 -79 l0 -22 -23 21 c-27 26 -44 27
-71 7 -33 -25 -39 -17 -16 20 l22 36 -21 18 c-12 10 -21 21 -21 25 0 14 25 4
64 -26z m-144 2 c0 -5 -5 -10 -11 -10 -5 0 -7 5 -4 10 3 6 8 10 11 10 2 0 4
-4 4 -10z m-570 -28 c0 -10 -21 -32 -31 -32 -4 0 -5 9 -2 20 5 19 33 29 33 12z
m526 -54 c10 -12 13 -18 7 -14 -10 5 -11 -1 -7 -24 8 -37 -2 -38 -44 -1 l-33
29 28 15 c15 8 28 15 29 16 0 1 9 -9 20 -21z m535 -6 c14 -25 20 -27 60 -24
l44 3 -34 -29 c-28 -24 -33 -33 -27 -55 8 -32 9 -31 -37 -12 -45 19 -46 19
-41 -2 2 -11 -9 -27 -27 -42 l-31 -24 7 44 c4 24 12 47 18 51 7 4 0 12 -16 19
-34 16 -34 27 0 31 18 2 31 13 42 35 9 18 18 33 21 33 3 0 12 -13 21 -28z
m399 -149 c0 -7 -12 -13 -26 -13 -22 0 -25 3 -20 23 3 12 6 29 6 37 1 18 39
-28 40 -47z m450 -19 c0 -17 10 -17 45 -4 33 12 43 -7 25 -50 -8 -20 -9 -34
-3 -43 15 -19 22 -56 12 -63 -5 -3 -9 1 -9 9 0 20 -48 17 -80 -6 -34 -24 -40
-22 -40 17 0 31 -4 36 -35 47 -19 7 -35 17 -35 21 0 5 18 15 40 24 36 14 39
18 33 45 -3 15 -2 36 2 46 6 16 8 16 26 -6 10 -13 19 -29 19 -37z m-377 -1 c4
-3 -1 -15 -10 -25 -16 -18 -16 -21 0 -47 24 -41 22 -44 -26 -37 -33 5 -47 3
-57 -9 -21 -25 -40 -18 -40 16 0 26 -5 33 -40 46 -22 9 -40 19 -40 24 0 4 30
10 68 14 37 4 81 11 97 15 40 11 41 11 48 3z m347 -192 c0 -6 -4 -13 -10 -16
-5 -3 -10 1 -10 9 0 9 5 16 10 16 6 0 10 -4 10 -9z m4224 -1310 c3 -5 -6 -8
-19 -8 -14 0 -28 3 -31 8 -3 5 6 9 20 9 14 0 27 -4 30 -9z m36 -1 c0 -5 -2
-10 -4 -10 -3 0 -8 5 -11 10 -3 6 -1 10 4 10 6 0 11 -4 11 -10z m28 -27 c-16
-2 -40 -2 -55 0 -16 2 -3 4 27 4 30 0 43 -2 28 -4z m202 -53 c0 -5 -4 -10 -10
-10 -5 0 -10 5 -10 10 0 6 5 10 10 10 6 0 10 -4 10 -10z m-163 -50 c21 0 59
-29 65 -50 3 -8 19 -15 43 -17 70 -4 100 -27 138 -102 l34 -69 -61 -17 c-34
-9 -71 -19 -82 -22 -14 -3 -30 4 -47 20 -13 14 -23 28 -21 30 7 7 -106 107
-121 107 -20 0 -19 -29 2 -37 9 -4 24 -14 34 -22 9 -9 31 -29 49 -44 50 -44
29 -42 -36 3 -63 43 -114 102 -114 131 0 9 -12 28 -27 41 -17 14 -28 33 -28
48 0 22 5 26 40 30 27 4 52 0 77 -12 21 -10 45 -18 55 -18z m420 -324 c29 -44
53 -83 53 -87 0 -6 -85 -29 -109 -29 -4 0 -8 15 -9 33 -1 28 1 30 12 15 17
-23 28 -23 24 -1 -2 10 5 19 16 21 11 2 16 0 12 -6 -7 -11 12 -28 21 -18 6 5
-42 67 -48 62 -2 -2 -16 -6 -31 -10 -25 -6 -28 -3 -28 18 0 13 -7 29 -15 36
-18 15 -20 -1 -3 -18 9 -9 8 -12 -7 -12 -20 -1 -20 -1 -1 -15 20 -15 20 -15 0
-15 -11 0 -24 11 -31 26 -10 22 -10 25 3 20 9 -3 12 -1 9 4 -3 6 -17 10 -31
10 -24 0 -24 -1 -10 -22 27 -38 17 -44 -15 -9 -17 19 -27 37 -22 41 11 10 124
39 142 37 8 -1 38 -38 68 -81z m-227 4 c0 -5 -7 -7 -15 -4 -8 4 -15 8 -15 10
0 2 7 4 15 4 8 0 15 -4 15 -10z m210 -34 c0 -2 -9 -6 -20 -9 -11 -3 -18 -1
-14 4 5 9 34 13 34 5z m-65 -44 c-8 -9 -25 20 -18 31 3 5 10 2 15 -7 6 -10 7
-20 3 -24z"/>
<path d="M3756 6253 c-6 -14 -5 -15 5 -6 7 7 10 15 7 18 -3 3 -9 -2 -12 -12z"/>
<path d="M3957 6251 c-4 -17 -3 -21 5 -13 5 5 8 16 6 23 -3 8 -7 3 -11 -10z"/>
<path d="M3891 6224 c0 -11 3 -14 6 -6 3 7 2 16 -1 19 -3 4 -6 -2 -5 -13z"/>
<path d="M3915 6200 c-4 -17 -5 -34 -2 -36 3 -3 8 9 12 26 4 17 5 34 2 36 -3
3 -8 -9 -12 -26z"/>
<path d="M3980 6196 c0 -20 2 -36 4 -36 8 0 12 61 4 66 -4 3 -8 -11 -8 -30z"/>
<path d="M3945 6190 c-4 -17 -5 -34 -2 -36 3 -3 8 9 12 26 4 17 5 34 2 36 -3
3 -8 -9 -12 -26z"/>
<path d="M3781 6194 c0 -11 3 -14 6 -6 3 7 2 16 -1 19 -3 4 -6 -2 -5 -13z"/>
<path d="M3847 6187 c-4 -10 -7 -26 -7 -35 1 -15 2 -15 11 1 6 10 9 25 7 35
-3 16 -4 15 -11 -1z"/>
<path d="M3812 6170 c0 -14 2 -19 5 -12 2 6 2 18 0 25 -3 6 -5 1 -5 -13z"/>
<path d="M3770 6159 c0 -5 5 -7 10 -4 6 3 10 8 10 11 0 2 -4 4 -10 4 -5 0 -10
-5 -10 -11z"/>
<path d="M3512 6077 c-9 -10 -4 -13 23 -13 22 0 35 5 35 13 0 7 -11 13 -24 13
-13 0 -28 -6 -34 -13z"/>
<path d="M3525 6040 c-3 -5 -1 -10 4 -10 6 0 11 5 11 10 0 6 -2 10 -4 10 -3 0
-8 -4 -11 -10z"/>
<path d="M7070 1280 c-12 -8 -10 -9 7 -7 12 2 26 6 29 10 11 11 -19 8 -36 -3z"/>
<path d="M663 3223 c-18 -7 -16 -27 5 -46 23 -21 29 -21 29 1 0 24 -20 50 -34
45z"/>
<path d="M846 3093 c-31 -26 -32 -34 -7 -50 15 -10 21 -10 24 0 4 9 6 9 6 -1
1 -8 14 -1 32 16 57 53 5 87 -55 35z"/>
<path d="M1121 2914 c0 -11 3 -14 6 -6 3 7 2 16 -1 19 -3 4 -6 -2 -5 -13z"/>
</g>
</svg>
